RobotoFlex_XOAC50.ufo
<glyph name="quotesingle" format="2">
  <advance width="350"/>
  <unicode hex="0027"/>
  <outline>
    <contour>
      <point x="100" y="966" type="line"/>
      <point x="121" y="1320" type="line"/>
      <point x="121" y="1456" type="line"/>
      <point x="229" y="1456" type="line"/>
      <point x="229" y="1320" type="line"/>
      <point x="250" y="966" type="line"/>
    </contour>
  </outline>
</glyph>
<glyph name="asterisk" format="2">
  <advance width="1049"/>
  <unicode hex="002A"/>
  <outline>
    <contour>
      <point x="58" y="1098" type="line"/>
      <point x="90" y="1196" type="line"/>
      <point x="466" y="1079" type="line"/>
      <point x="472" y="1476" type="line"/>
      <point x="574" y="1476" type="line"/>
      <point x="580" y="1079" type="line"/>
      <point x="959" y="1196" type="line"/>
      <point x="991" y="1098" type="line"/>
      <point x="616" y="969" type="line"/>
      <point x="845" y="645" type="line"/>
      <point x="761" y="585" type="line"/>
      <point x="523" y="903" type="line"/>
      <point x="285" y="585" type="line"/>
      <point x="201" y="645" type="line"/>
      <point x="430" y="969" type="line"/>
    </contour>
  </outline>
</glyph>
<glyph name="asciicircum" format="2">
  <advance width="1078"/>
  <unicode hex="005E"/>
  <outline>
    <contour>
      <point x="25" y="720" type="line"/>
      <point x="493" y="1456" type="line"/>
      <point x="585" y="1456" type="line"/>
      <point x="1053" y="720" type="line"/>
      <point x="945" y="720" type="line"/>
      <point x="539" y="1357" type="line"/>
      <point x="133" y="720" type="line"/>
    </contour>
  </outline>
</glyph>
<glyph name="braceright" format="2">
  <advance width="700"/>
  <unicode hex="007D"/>
  <outline>
    <contour>
      <point x="30" y="-312" type="qcurve"/>
      <point x="30" y="-166" type="line"/>
      <point x="178" y="-166"/>
      <point x="344" y="10"/>
      <point x="315" y="131" type="qcurve" smooth="yes"/>
      <point x="265" y="342" type="line" smooth="yes"/>
      <point x="245" y="426"/>
      <point x="290" y="548"/>
      <point x="388" y="574" type="qcurve"/>
      <point x="290" y="600"/>
      <point x="253" y="743"/>
      <point x="273" y="827" type="qcurve" smooth="yes"/>
      <point x="323" y="1038" type="line" smooth="yes"/>
      <point x="352" y="1159"/>
      <point x="178" y="1314"/>
      <point x="30" y="1314" type="qcurve"/>
      <point x="30" y="1460" type="line"/>
      <point x="256" y="1460"/>
      <point x="463" y="1190"/>
      <point x="426" y="1035" type="qcurve" smooth="yes"/>
      <point x="376" y="824" type="line" smooth="yes"/>
      <point x="351" y="717"/>
      <point x="524" y="640"/>
      <point x="636" y="640" type="qcurve"/>
      <point x="636" y="508" type="line"/>
      <point x="524" y="508"/>
      <point x="347" y="429"/>
      <point x="372" y="322" type="qcurve" smooth="yes"/>
      <point x="422" y="111" type="line" smooth="yes"/>
      <point x="459" y="-44"/>
      <point x="256" y="-312"/>
    </contour>
  </outline>
</glyph>
<glyph name="exclamdown" format="2">
  <advance width="536"/>
  <unicode hex="00A1"/>
  <outline>
    <contour>
      <point x="335" y="1087" type="qcurve" smooth="yes"/>
      <point x="335" y="1060"/>
      <point x="300" y="1022"/>
      <point x="268" y="1022" type="qcurve" smooth="yes"/>
      <point x="236" y="1022"/>
      <point x="201" y="1060"/>
      <point x="201" y="1087" type="qcurve" smooth="yes"/>
      <point x="201" y="1113"/>
      <point x="236" y="1151"/>
      <point x="268" y="1151" type="qcurve" smooth="yes"/>
      <point x="300" y="1151"/>
      <point x="335" y="1113"/>
    </contour>
    <contour>
      <point x="350" y="740" type="line"/>
      <point x="320" y="-306" type="line"/>
      <point x="216" y="-306" type="line"/>
      <point x="186" y="740" type="line"/>
    </contour>
  </outline>
</glyph>
<glyph name="guillemotleft" format="2">
  <advance width="1092"/>
  <unicode hex="00AB"/>
  <guideline x="0" y="901" angle="0" identifier="ZftBQarVKw"/>
  <guideline x="0" y="555" angle="0" identifier="MVJpdoVRVd"/>
  <outline>
    <contour>
      <point x="108" y="536" type="line"/>
      <point x="108" y="568" type="line"/>
      <point x="403" y="949" type="line"/>
      <point x="565" y="949" type="line"/>
      <point x="215" y="551" type="line"/>
      <point x="565" y="153" type="line"/>
      <point x="403" y="153" type="line"/>
    </contour>
    <contour>
      <point x="549" y="536" type="line"/>
      <point x="549" y="568" type="line"/>
      <point x="844" y="949" type="line"/>
      <point x="1006" y="949" type="line"/>
      <point x="656" y="551" type="line"/>
      <point x="1006" y="153" type="line"/>
      <point x="844" y="153" type="line"/>
    </contour>
  </outline>
</glyph>
<glyph name="plusminus" format="2">
  <advance width="1024"/>
  <unicode hex="00B1"/>
  <outline>
    <contour>
      <point x="57" y="611" type="line"/>
      <point x="57" y="775" type="line"/>
      <point x="967" y="775" type="line"/>
      <point x="967" y="611" type="line"/>
    </contour>
    <contour>
      <point x="463" y="248" type="line"/>
      <point x="463" y="1160" type="line"/>
      <point x="561" y="1160" type="line"/>
      <point x="561" y="248" type="line"/>
    </contour>
    <contour>
      <point x="57" y="1" type="line"/>
      <point x="57" y="165" type="line"/>
      <point x="967" y="165" type="line"/>
      <point x="967" y="1" type="line"/>
    </contour>
  </outline>
</glyph>
<glyph name="cedilla" format="2">
  <advance width="940"/>
  <unicode hex="00B8"/>
  <outline>
    <contour>
      <point x="440" y="20" type="line"/>
      <point x="569" y="20" type="line"/>
      <point x="541" y="-75" type="line"/>
      <point x="589" y="-97"/>
      <point x="640" y="-168"/>
      <point x="640" y="-248" type="qcurve" smooth="yes"/>
      <point x="640" y="-328"/>
      <point x="521" y="-451"/>
      <point x="348" y="-457" type="qcurve"/>
      <point x="341" y="-350" type="line"/>
      <point x="463" y="-350"/>
      <point x="542" y="-303"/>
      <point x="542" y="-250" type="qcurve" smooth="yes"/>
      <point x="542" y="-201"/>
      <point x="483" y="-164"/>
      <point x="399" y="-157" type="qcurve"/>
    </contour>
  </outline>
</glyph>
<glyph name="commaaccentturned" format="2">
  <advance width="1024"/>
  <unicode hex="02BB"/>
  <outline>
    <contour>
      <point x="748" y="1663" type="line"/>
      <point x="610" y="1291" type="line"/>
      <point x="506" y="1289" type="line"/>
      <point x="585" y="1666" type="line"/>
    </contour>
  </outline>
</glyph>
<glyph name="breveinvertedcomb" format="2">
  <advance width="1024"/>
  <unicode hex="030F"/>
  <anchor x="512" y="1052" name="_top"/>
  <anchor x="512" y="1540" name="top"/>
  <outline>
    <contour>
      <point x="272" y="1220" type="qcurve"/>
      <point x="177" y="1274" type="line"/>
      <point x="212" y="1373"/>
      <point x="387" y="1540"/>
      <point x="513" y="1540" type="qcurve" smooth="yes"/>
      <point x="626" y="1540"/>
      <point x="807" y="1387"/>
      <point x="849" y="1273" type="qcurve"/>
      <point x="745" y="1220" type="line"/>
      <point x="711" y="1317"/>
      <point x="591" y="1452"/>
      <point x="512" y="1452" type="qcurve" smooth="yes"/>
      <point x="428" y="1452"/>
      <point x="309" y="1321"/>
    </contour>
  </outline>
</glyph>
<glyph name="dieresisbelowcomb" format="2">
  <advance width="1024"/>
  <unicode hex="0324"/>
  <anchor x="512" y="0" name="_bottom"/>
  <anchor x="512" y="-441" name="bottom"/>
  <outline>
    <contour>
      <point x="219" y="-276" type="qcurve" smooth="yes"/>
      <point x="219" y="-246"/>
      <point x="252" y="-214"/>
      <point x="282" y="-214" type="qcurve" smooth="yes"/>
      <point x="311" y="-214"/>
      <point x="345" y="-248"/>
      <point x="345" y="-276" type="qcurve" smooth="yes"/>
      <point x="345" y="-305"/>
      <point x="313" y="-337"/>
      <point x="282" y="-337" type="qcurve" smooth="yes"/>
      <point x="253" y="-337"/>
      <point x="219" y="-303"/>
    </contour>
    <contour>
      <point x="679" y="-276" type="qcurve" smooth="yes"/>
      <point x="679" y="-246"/>
      <point x="712" y="-214"/>
      <point x="742" y="-214" type="qcurve" smooth="yes"/>
      <point x="771" y="-214"/>
      <point x="805" y="-248"/>
      <point x="805" y="-276" type="qcurve" smooth="yes"/>
      <point x="805" y="-305"/>
      <point x="773" y="-337"/>
      <point x="742" y="-337" type="qcurve" smooth="yes"/>
      <point x="713" y="-337"/>
      <point x="679" y="-303"/>
    </contour>
  </outline>
</glyph>
<glyph name="quotedblright" format="2">
  <advance width="706"/>
  <unicode hex="201D"/>
  <outline>
    <contour>
      <point x="277" y="1456" type="line"/>
      <point x="277" y="1328" type="line" smooth="yes"/>
      <point x="277" y="1218"/>
      <point x="216" y="1025"/>
      <point x="145" y="966" type="qcurve"/>
      <point x="39" y="1039" type="line"/>
      <point x="96" y="1095"/>
      <point x="178" y="1244"/>
      <point x="177" y="1325" type="qcurve" smooth="yes"/>
      <point x="177" y="1456" type="line"/>
    </contour>
    <contour>
      <point x="614" y="1456" type="line"/>
      <point x="614" y="1328" type="line" smooth="yes"/>
      <point x="614" y="1218"/>
      <point x="549" y="1023"/>
      <point x="482" y="966" type="qcurve"/>
      <point x="376" y="1039" type="line"/>
      <point x="433" y="1095"/>
      <point x="515" y="1244"/>
      <point x="514" y="1325" type="qcurve" smooth="yes"/>
      <point x="514" y="1456" type="line"/>
    </contour>
  </outline>
</glyph>
<glyph name="bullet" format="2">
  <advance width="424"/>
  <unicode hex="2022"/>
  <outline>
    <contour>
      <point x="56" y="773" type="qcurve" smooth="yes"/>
      <point x="56" y="836"/>
      <point x="143" y="929"/>
      <point x="212" y="929" type="qcurve" smooth="yes"/>
      <point x="280" y="929"/>
      <point x="367" y="836"/>
      <point x="367" y="773" type="qcurve" smooth="yes"/>
      <point x="367" y="712"/>
      <point x="280" y="619"/>
      <point x="212" y="619" type="qcurve" smooth="yes"/>
      <point x="143" y="619"/>
      <point x="56" y="712"/>
    </contour>
  </outline>
</glyph>
<glyph name="minute" format="2">
  <advance width="610"/>
  <unicode hex="2032"/>
  <outline>
    <contour>
      <point x="100" y="964" type="line"/>
      <point x="440" y="1535" type="line"/>
      <point x="544" y="1477" type="line"/>
      <point x="231" y="884" type="line"/>
    </contour>
  </outline>
</glyph>
<glyph name="commercialMinusSign" format="2">
  <advance width="795"/>
  <unicode hex="2052"/>
  <outline>
    <contour>
      <point x="60" y="-22" type="line"/>
      <point x="645" y="1481" type="line"/>
      <point x="735" y="1458" type="line"/>
      <point x="150" y="-45" type="line"/>
    </contour>
    <contour>
      <point x="540" y="74" type="qcurve" smooth="yes"/>
      <point x="540" y="109"/>
      <point x="589" y="161"/>
      <point x="627" y="161" type="qcurve" smooth="yes"/>
      <point x="665" y="161"/>
      <point x="714" y="109"/>
      <point x="714" y="74" type="qcurve" smooth="yes"/>
      <point x="714" y="39"/>
      <point x="665" y="-13"/>
      <point x="627" y="-13" type="qcurve" smooth="yes"/>
      <point x="589" y="-13"/>
      <point x="540" y="39"/>
    </contour>
    <contour>
      <point x="95" y="1379" type="qcurve" smooth="yes"/>
      <point x="95" y="1414"/>
      <point x="144" y="1466"/>
      <point x="182" y="1466" type="qcurve" smooth="yes"/>
      <point x="220" y="1466"/>
      <point x="269" y="1414"/>
      <point x="269" y="1379" type="qcurve" smooth="yes"/>
      <point x="269" y="1344"/>
      <point x="220" y="1292"/>
      <point x="182" y="1292" type="qcurve" smooth="yes"/>
      <point x="144" y="1292"/>
      <point x="95" y="1344"/>
    </contour>
  </outline>
</glyph>
<glyph name="foursuperior" format="2">
  <advance width="679"/>
  <unicode hex="2074"/>
  <outline>
    <contour>
      <point x="54" y="940" type="line"/>
      <point x="54" y="982" type="line"/>
      <point x="432" y="1496" type="line"/>
      <point x="556" y="1496" type="line"/>
      <point x="399" y="1270" type="line"/>
      <point x="212" y="1010" type="line"/>
      <point x="628" y="1010" type="line"/>
      <point x="628" y="940" type="line"/>
    </contour>
    <contour>
      <point x="520" y="1496" type="line"/>
      <point x="520" y="697" type="line"/>
      <point x="435" y="697" type="line"/>
      <point x="435" y="1496" type="line"/>
    </contour>
  </outline>
</glyph>
<glyph name="acutecombstack.case" format="2">
  <advance width="1024"/>
  <anchor x="512" y="1536" name="_top"/>
  <anchor x="512" y="1941" name="top"/>
  <outline>
    <contour>
      <point x="302" y="1715" type="line"/>
      <point x="634" y="1901" type="line"/>
      <point x="693" y="1817" type="line"/>
      <point x="384" y="1605" type="line"/>
    </contour>
  </outline>
</glyph>
<glyph name="brevetildecomb" format="2">
  <advance width="1024"/>
  <anchor x="512" y="1052" name="_top"/>
  <outline>
    <contour>
      <point x="752" y="1540" type="qcurve"/>
      <point x="847" y="1486" type="line"/>
      <point x="812" y="1387"/>
      <point x="637" y="1220"/>
      <point x="511" y="1220" type="qcurve" smooth="yes"/>
      <point x="398" y="1220"/>
      <point x="217" y="1373"/>
      <point x="175" y="1487" type="qcurve"/>
      <point x="279" y="1540" type="line"/>
      <point x="314" y="1462"/>
      <point x="433" y="1326"/>
      <point x="512" y="1326" type="qcurve" smooth="yes"/>
      <point x="596" y="1326"/>
      <point x="716" y="1457"/>
    </contour>
    <contour>
      <point x="126" y="1746" type="line"/>
      <point x="159" y="1809"/>
      <point x="297" y="1907"/>
      <point x="364" y="1907" type="qcurve" smooth="yes"/>
      <point x="405" y="1907"/>
      <point x="482" y="1859"/>
      <point x="519" y="1828" type="qcurve" smooth="yes"/>
      <point x="553" y="1799"/>
      <point x="629" y="1758"/>
      <point x="667" y="1758" type="qcurve" smooth="yes"/>
      <point x="707" y="1758"/>
      <point x="778" y="1831"/>
      <point x="800" y="1881" type="qcurve"/>
      <point x="881" y="1783" type="line"/>
      <point x="843" y="1712"/>
      <point x="710" y="1640"/>
      <point x="653" y="1640" type="qcurve" smooth="yes"/>
      <point x="604" y="1640"/>
      <point x="518" y="1706"/>
      <point x="487" y="1728" type="qcurve" smooth="yes"/>
      <point x="453" y="1752"/>
      <point x="377" y="1783"/>
      <point x="348" y="1783" type="qcurve" smooth="yes"/>
      <point x="301" y="1783"/>
      <point x="217" y="1693"/>
      <point x="202" y="1654" type="qcurve"/>
    </contour>
  </outline>
</glyph>
<glyph name="circumflexacutecomb" format="2">
  <advance width="1024"/>
  <anchor x="512" y="1052" name="_top"/>
  <outline>
    <contour>
      <point x="543" y="1533" type="line"/>
      <point x="816" y="1220" type="line"/>
      <point x="662" y="1220" type="line"/>
      <point x="512" y="1448" type="line"/>
      <point x="363" y="1220" type="line"/>
      <point x="211" y="1220" type="line"/>
      <point x="481" y="1533" type="line"/>
    </contour>
    <contour>
      <point x="796" y="1519" type="line"/>
      <point x="1071" y="1790" type="line"/>
      <point x="1152" y="1733" type="line"/>
      <point x="891" y="1433" type="line"/>
    </contour>
  </outline>
</glyph>
<glyph name="circumflexgravecomb" format="2">
  <advance width="1024"/>
  <anchor x="512" y="1052" name="_top"/>
  <outline>
    <contour>
      <point x="543" y="1533" type="line"/>
      <point x="816" y="1220" type="line"/>
      <point x="662" y="1220" type="line"/>
      <point x="512" y="1448" type="line"/>
      <point x="363" y="1220" type="line"/>
      <point x="211" y="1220" type="line"/>
      <point x="481" y="1533" type="line"/>
    </contour>
    <contour>
      <point x="866" y="1433" type="line"/>
      <point x="601" y="1731" type="line"/>
      <point x="684" y="1788" type="line"/>
      <point x="971" y="1512" type="line"/>
    </contour>
  </outline>
</glyph>
<glyph name="circumflexhookabovecomb.case" format="2">
  <advance width="1024"/>
  <anchor x="512" y="1456" name="_top"/>
  <anchor x="512" y="1456" name="_top"/>
  <outline>
    <contour>
      <point x="547" y="1892" type="line"/>
      <point x="844" y="1602" type="line"/>
      <point x="680" y="1602" type="line"/>
      <point x="509" y="1808" type="line"/>
      <point x="346" y="1602" type="line"/>
      <point x="178" y="1602" type="line"/>
      <point x="467" y="1892" type="line"/>
    </contour>
    <contour>
      <point x="761" y="1819" type="line"/>
      <point x="761" y="1866" type="line" smooth="yes"/>
      <point x="761" y="1911"/>
      <point x="821" y="1961"/>
      <point x="900" y="1972" type="qcurve" smooth="yes"/>
      <point x="954" y="1980"/>
      <point x="1006" y="2007"/>
      <point x="1006" y="2043" type="qcurve" smooth="yes"/>
      <point x="1006" y="2072"/>
      <point x="951" y="2098"/>
      <point x="885" y="2098" type="qcurve" smooth="yes"/>
      <point x="817" y="2098"/>
      <point x="710" y="2069"/>
      <point x="701" y="2062" type="qcurve"/>
      <point x="653" y="2181" type="line"/>
      <point x="684" y="2198"/>
      <point x="820" y="2233"/>
      <point x="894" y="2233" type="qcurve" smooth="yes"/>
      <point x="1000" y="2233"/>
      <point x="1110" y="2134"/>
      <point x="1110" y="2050" type="qcurve" smooth="yes"/>
      <point x="1110" y="1963"/>
      <point x="1017" y="1872"/>
      <point x="910" y="1862" type="qcurve"/>
      <point x="910" y="1819" type="line"/>
    </contour>
  </outline>
</glyph>
<glyph name="commaaccentcomb.case" format="2">
  <advance width="1024"/>
  <anchor x="512" y="0" name="_bottom"/>
  <anchor x="512" y="-600" name="bottom"/>
  <outline>
    <contour>
      <point x="333" y="-597" type="line"/>
      <point x="490" y="-186" type="line"/>
      <point x="592" y="-184" type="line"/>
      <point x="508" y="-600" type="line"/>
    </contour>
  </outline>
</glyph>
<glyph name="gravecomb.case" format="2">
  <advance width="1024"/>
  <anchor x="512" y="1455" name="_top"/>
  <anchor x="512" y="1974" name="top"/>
  <outline>
    <contour>
      <point x="468" y="1600" type="line"/>
      <point x="267" y="1899" type="line"/>
      <point x="352" y="1951" type="line"/>
      <point x="580" y="1675" type="line"/>
    </contour>
  </outline>
</glyph>
